<svg width="100" height="100" viewBox="0 0 100 100" fill="none" xmlns="http://www.w3.org/2000/svg">
<path d="M49.2998 88.9916C38.8016 88.9916 28.7334 84.8212 21.3101 77.3979C13.8868 69.9746 9.71645 59.9064 9.71645 49.4083C9.71645 38.9101 13.8868 28.842 21.3101 21.4186C28.7334 13.9953 38.8016 9.82495 49.2998 9.82495C49.8523 9.82495 50.3822 10.0444 50.7729 10.4351C51.1636 10.8258 51.3831 11.3558 51.3831 11.9083C51.3831 12.4608 51.1636 12.9907 50.7729 13.3814C50.3822 13.7721 49.8523 13.9916 49.2998 13.9916C43.4567 13.957 37.6958 15.3686 32.5306 18.1006C27.3654 20.8326 22.9565 24.8001 19.6967 29.6495C16.4369 34.4989 14.4276 40.0795 13.8479 45.8938C13.2681 51.7082 14.136 57.5757 16.3741 62.9732C18.6122 68.3708 22.151 73.1308 26.6751 76.8289C31.1992 80.5269 36.5679 83.0482 42.3028 84.1679C48.0377 85.2877 53.9606 84.9711 59.5434 83.2464C65.1263 81.5217 70.1957 78.4425 74.2998 74.2833C74.485 74.064 74.7136 73.8853 74.9712 73.7585C75.2287 73.6317 75.5097 73.5596 75.7965 73.5465C76.0832 73.5334 76.3696 73.5798 76.6376 73.6826C76.9056 73.7854 77.1495 73.9426 77.354 74.1441C77.5584 74.3457 77.7189 74.5873 77.8256 74.8538C77.9322 75.1203 77.9826 75.406 77.9736 75.693C77.9646 75.9799 77.8964 76.2619 77.7733 76.5212C77.6502 76.7805 77.4748 77.0116 77.2581 77.1999C73.6151 80.9244 69.2663 83.8854 64.4659 85.91C59.6655 87.9346 54.5097 88.9822 49.2998 88.9916V88.9916Z" fill="#FF4343"/>
<path d="M48.0497 62.7417C47.7795 62.7504 47.5104 62.703 47.2595 62.6026C47.0085 62.5022 46.781 62.351 46.5913 62.1583L29.9247 45.4917C29.7294 45.298 29.5744 45.0676 29.4686 44.8137C29.3629 44.5598 29.3084 44.2875 29.3084 44.0125C29.3084 43.7375 29.3629 43.4652 29.4686 43.2113C29.5744 42.9574 29.7294 42.727 29.9247 42.5333C30.3211 42.149 30.8516 41.934 31.4038 41.934C31.956 41.934 32.4865 42.149 32.883 42.5333L48.0497 57.7417L82.008 23.7833C82.4003 23.391 82.9324 23.1707 83.4872 23.1707C84.042 23.1707 84.574 23.391 84.9663 23.7833C85.3586 24.1756 85.579 24.7077 85.579 25.2625C85.579 25.8173 85.3586 26.3494 84.9663 26.7417L49.5497 62.1583C49.3508 62.3502 49.1158 62.5006 48.8583 62.6007C48.6008 62.7009 48.3259 62.7488 48.0497 62.7417V62.7417Z" fill="#FF4343"/>
</svg>
